<mxfile host="app.diagrams.net" agent="Mozilla/5.0 (Windows NT 10.0; Win64; x64) AppleWebKit/537.36 (KHTML, like Gecko) Chrome/130.0.0.0 Safari/537.36" version="26.0.5">
  <diagram name="Страница — 1" id="RSSQQjobEmHtQOJLh6rF">
    <mxGraphModel dx="2868" dy="2661" grid="1" gridSize="10" guides="1" tooltips="1" connect="1" arrows="1" fold="1" page="1" pageScale="1" pageWidth="827" pageHeight="1169" math="0" shadow="0">
      <root>
        <mxCell id="0" />
        <mxCell id="1" parent="0" />
        <object placeholders="1" c4Name="Система мониторинга" c4Type="Системная утилита : C# для IoT " c4Description="- Читает настройки.&#xa;- Отправляет данные&#xa;от базовой станции." label="&lt;font style=&quot;font-size: 16px&quot;&gt;&lt;b&gt;%c4Name%&lt;/b&gt;&lt;/font&gt;&lt;div&gt;[%c4Type%]&lt;/div&gt;&lt;br&gt;&lt;div&gt;&lt;font style=&quot;font-size: 11px&quot;&gt;&lt;font color=&quot;#cccccc&quot;&gt;%c4Description%&lt;/font&gt;&lt;/div&gt;" id="6IIrEB2aeXXgAxtUAavF-1">
          <mxCell style="rounded=1;whiteSpace=wrap;html=1;labelBackgroundColor=none;fillColor=#1061B0;fontColor=#ffffff;align=center;arcSize=10;strokeColor=#0D5091;metaEdit=1;resizable=0;points=[[0.25,0,0],[0.5,0,0],[0.75,0,0],[1,0.25,0],[1,0.5,0],[1,0.75,0],[0.75,1,0],[0.5,1,0],[0.25,1,0],[0,0.75,0],[0,0.5,0],[0,0.25,0]];" vertex="1" parent="1">
            <mxGeometry x="40" y="40" width="240" height="120" as="geometry" />
          </mxCell>
        </object>
        <object placeholders="1" c4Name="Внедряемый модуль безопасности" c4Type="Системная утилита" c4Technology="C# для IoT " c4Description="- Мониторит сетевой трафик.&#xa;- Передает телеметрию&#xa;на сервер ИБ" label="&lt;font style=&quot;font-size: 16px&quot;&gt;&lt;b&gt;%c4Name%&lt;/b&gt;&lt;/font&gt;&lt;div&gt;[%c4Type%: %c4Technology%]&lt;/div&gt;&lt;br&gt;&lt;div&gt;&lt;font style=&quot;font-size: 11px&quot;&gt;&lt;font color=&quot;#E6E6E6&quot;&gt;%c4Description%&lt;/font&gt;&lt;/div&gt;" id="6IIrEB2aeXXgAxtUAavF-2">
          <mxCell style="rounded=1;whiteSpace=wrap;html=1;fontSize=11;labelBackgroundColor=none;fillColor=#23A2D9;fontColor=#ffffff;align=center;arcSize=10;strokeColor=#0E7DAD;metaEdit=1;resizable=0;points=[[0.25,0,0],[0.5,0,0],[0.75,0,0],[1,0.25,0],[1,0.5,0],[1,0.75,0],[0.75,1,0],[0.5,1,0],[0.25,1,0],[0,0.75,0],[0,0.5,0],[0,0.25,0]];" vertex="1" parent="1">
            <mxGeometry x="360" y="40" width="240" height="120" as="geometry" />
          </mxCell>
        </object>
        <object placeholders="1" c4Name="API Gateway Cервиса ИБ" c4Type="Container" c4Technology="Envoy" c4Description="API шлюз и балансировщик" label="&lt;font style=&quot;font-size: 16px&quot;&gt;&lt;b&gt;%c4Name%&lt;/b&gt;&lt;/font&gt;&lt;div&gt;[%c4Type%: %c4Technology%]&lt;/div&gt;&lt;br&gt;&lt;div&gt;&lt;font style=&quot;font-size: 11px&quot;&gt;%c4Description%&lt;/font&gt;&lt;/div&gt;" id="6IIrEB2aeXXgAxtUAavF-3">
          <mxCell style="rounded=1;whiteSpace=wrap;html=1;labelBackgroundColor=none;fillColor=#63BEF2;fontColor=#ffffff;align=center;arcSize=6;strokeColor=#2086C9;metaEdit=1;resizable=0;points=[[0.25,0,0],[0.5,0,0],[0.75,0,0],[1,0.25,0],[1,0.5,0],[1,0.75,0],[0.75,1,0],[0.5,1,0],[0.25,1,0],[0,0.75,0],[0,0.5,0],[0,0.25,0]];" vertex="1" parent="1">
            <mxGeometry x="760" y="40" width="240" height="120" as="geometry" />
          </mxCell>
        </object>
        <object placeholders="1" c4Name="Сервис ИБ" c4Type="Component" c4Technology="ASP.Net Core WebApi" c4Description="- Cбор телеметрии от&#xa;внедряемого модуля&#xa;безопасности.&#xa;- Оповещение об угрозах." label="&lt;font style=&quot;font-size: 16px&quot;&gt;&lt;b&gt;%c4Name%&lt;/b&gt;&lt;/font&gt;&lt;div&gt;[%c4Type%: %c4Technology%]&lt;/div&gt;&lt;br&gt;&lt;div&gt;&lt;font style=&quot;font-size: 11px&quot;&gt;%c4Description%&lt;/font&gt;&lt;/div&gt;" id="6IIrEB2aeXXgAxtUAavF-4">
          <mxCell style="rounded=1;whiteSpace=wrap;html=1;labelBackgroundColor=none;fillColor=#63BEF2;fontColor=#ffffff;align=center;arcSize=6;strokeColor=#2086C9;metaEdit=1;resizable=0;points=[[0.25,0,0],[0.5,0,0],[0.75,0,0],[1,0.25,0],[1,0.5,0],[1,0.75,0],[0.75,1,0],[0.5,1,0],[0.25,1,0],[0,0.75,0],[0,0.5,0],[0,0.25,0]];" vertex="1" parent="1">
            <mxGeometry x="1080" y="40" width="240" height="120" as="geometry" />
          </mxCell>
        </object>
        <object placeholders="1" c4Name="Инженер ИБ" c4Type="Person" c4Description="Реагирует на предупреждения об угрозах." label="&lt;font style=&quot;font-size: 16px&quot;&gt;&lt;b&gt;%c4Name%&lt;/b&gt;&lt;/font&gt;&lt;div&gt;[%c4Type%]&lt;/div&gt;&lt;br&gt;&lt;div&gt;&lt;font style=&quot;font-size: 11px&quot;&gt;&lt;font color=&quot;#cccccc&quot;&gt;%c4Description%&lt;/font&gt;&lt;/div&gt;" id="6IIrEB2aeXXgAxtUAavF-5">
          <mxCell style="html=1;fontSize=11;dashed=0;whiteSpace=wrap;fillColor=#083F75;strokeColor=#06315C;fontColor=#ffffff;shape=mxgraph.c4.person2;align=center;metaEdit=1;points=[[0.5,0,0],[1,0.5,0],[1,0.75,0],[0.75,1,0],[0.5,1,0],[0.25,1,0],[0,0.75,0],[0,0.5,0]];resizable=0;" vertex="1" parent="1">
            <mxGeometry x="1400" y="-20" width="200" height="180" as="geometry" />
          </mxCell>
        </object>
        <mxCell id="6IIrEB2aeXXgAxtUAavF-6" value="" style="endArrow=none;dashed=1;html=1;rounded=0;entryX=0.523;entryY=1.014;entryDx=0;entryDy=0;entryPerimeter=0;" edge="1" parent="1">
          <mxGeometry width="50" height="50" relative="1" as="geometry">
            <mxPoint x="160" y="550" as="sourcePoint" />
            <mxPoint x="159.5" y="160" as="targetPoint" />
          </mxGeometry>
        </mxCell>
        <mxCell id="6IIrEB2aeXXgAxtUAavF-7" value="" style="endArrow=none;dashed=1;html=1;rounded=0;entryX=0.523;entryY=1.014;entryDx=0;entryDy=0;entryPerimeter=0;" edge="1" parent="1" source="6IIrEB2aeXXgAxtUAavF-14">
          <mxGeometry width="50" height="50" relative="1" as="geometry">
            <mxPoint x="480" y="550" as="sourcePoint" />
            <mxPoint x="479.5" y="160" as="targetPoint" />
          </mxGeometry>
        </mxCell>
        <mxCell id="6IIrEB2aeXXgAxtUAavF-8" value="" style="endArrow=none;dashed=1;html=1;rounded=0;entryX=0.523;entryY=1.014;entryDx=0;entryDy=0;entryPerimeter=0;" edge="1" parent="1">
          <mxGeometry width="50" height="50" relative="1" as="geometry">
            <mxPoint x="880" y="550" as="sourcePoint" />
            <mxPoint x="879.5" y="160" as="targetPoint" />
          </mxGeometry>
        </mxCell>
        <mxCell id="6IIrEB2aeXXgAxtUAavF-9" value="" style="endArrow=none;dashed=1;html=1;rounded=0;entryX=0.523;entryY=1.014;entryDx=0;entryDy=0;entryPerimeter=0;" edge="1" parent="1" source="6IIrEB2aeXXgAxtUAavF-17">
          <mxGeometry width="50" height="50" relative="1" as="geometry">
            <mxPoint x="1200" y="550" as="sourcePoint" />
            <mxPoint x="1199.5" y="160" as="targetPoint" />
          </mxGeometry>
        </mxCell>
        <mxCell id="6IIrEB2aeXXgAxtUAavF-10" value="" style="endArrow=none;dashed=1;html=1;rounded=0;entryX=0.523;entryY=1.014;entryDx=0;entryDy=0;entryPerimeter=0;" edge="1" parent="1" source="6IIrEB2aeXXgAxtUAavF-29">
          <mxGeometry width="50" height="50" relative="1" as="geometry">
            <mxPoint x="1500" y="550" as="sourcePoint" />
            <mxPoint x="1499.5" y="160" as="targetPoint" />
          </mxGeometry>
        </mxCell>
        <mxCell id="6IIrEB2aeXXgAxtUAavF-11" value="" style="html=1;points=[[0,0,0,0,5],[0,1,0,0,-5],[1,0,0,0,5],[1,1,0,0,-5]];perimeter=orthogonalPerimeter;outlineConnect=0;targetShapes=umlLifeline;portConstraint=eastwest;newEdgeStyle={&quot;curved&quot;:0,&quot;rounded&quot;:0};fillColor=light-dark(#23458b, #6db2ff);fontColor=#ffffff;strokeColor=#001DBC;" vertex="1" parent="1">
          <mxGeometry x="155" y="280" width="10" height="160" as="geometry" />
        </mxCell>
        <mxCell id="6IIrEB2aeXXgAxtUAavF-12" value="" style="endArrow=classic;html=1;rounded=0;" edge="1" parent="1" target="6IIrEB2aeXXgAxtUAavF-14">
          <mxGeometry relative="1" as="geometry">
            <mxPoint x="165" y="290" as="sourcePoint" />
            <mxPoint x="460" y="290" as="targetPoint" />
          </mxGeometry>
        </mxCell>
        <mxCell id="6IIrEB2aeXXgAxtUAavF-13" value="Отправляет запрос внешнему сервису" style="edgeLabel;resizable=0;html=1;;align=center;verticalAlign=middle;" connectable="0" vertex="1" parent="6IIrEB2aeXXgAxtUAavF-12">
          <mxGeometry relative="1" as="geometry" />
        </mxCell>
        <mxCell id="6IIrEB2aeXXgAxtUAavF-15" value="" style="endArrow=none;dashed=1;html=1;rounded=0;entryX=0.523;entryY=1.014;entryDx=0;entryDy=0;entryPerimeter=0;" edge="1" parent="1" target="6IIrEB2aeXXgAxtUAavF-14">
          <mxGeometry width="50" height="50" relative="1" as="geometry">
            <mxPoint x="480" y="550" as="sourcePoint" />
            <mxPoint x="479.5" y="160" as="targetPoint" />
          </mxGeometry>
        </mxCell>
        <mxCell id="6IIrEB2aeXXgAxtUAavF-14" value="" style="html=1;points=[[0,0,0,0,5],[0,1,0,0,-5],[1,0,0,0,5],[1,1,0,0,-5]];perimeter=orthogonalPerimeter;outlineConnect=0;targetShapes=umlLifeline;portConstraint=eastwest;newEdgeStyle={&quot;curved&quot;:0,&quot;rounded&quot;:0};fillColor=light-dark(#23458b, #6db2ff);fontColor=#ffffff;strokeColor=#001DBC;" vertex="1" parent="1">
          <mxGeometry x="475" y="290" width="10" height="140" as="geometry" />
        </mxCell>
        <mxCell id="6IIrEB2aeXXgAxtUAavF-16" value="" style="html=1;points=[[0,0,0,0,5],[0,1,0,0,-5],[1,0,0,0,5],[1,1,0,0,-5]];perimeter=orthogonalPerimeter;outlineConnect=0;targetShapes=umlLifeline;portConstraint=eastwest;newEdgeStyle={&quot;curved&quot;:0,&quot;rounded&quot;:0};fillColor=light-dark(#23458b, #6db2ff);fontColor=#ffffff;strokeColor=#001DBC;" vertex="1" parent="1">
          <mxGeometry x="875" y="300" width="10" height="120" as="geometry" />
        </mxCell>
        <mxCell id="6IIrEB2aeXXgAxtUAavF-18" value="" style="endArrow=none;dashed=1;html=1;rounded=0;entryX=0.523;entryY=1.014;entryDx=0;entryDy=0;entryPerimeter=0;" edge="1" parent="1" target="6IIrEB2aeXXgAxtUAavF-17">
          <mxGeometry width="50" height="50" relative="1" as="geometry">
            <mxPoint x="1200" y="550" as="sourcePoint" />
            <mxPoint x="1199.5" y="160" as="targetPoint" />
          </mxGeometry>
        </mxCell>
        <mxCell id="6IIrEB2aeXXgAxtUAavF-17" value="" style="html=1;points=[[0,0,0,0,5],[0,1,0,0,-5],[1,0,0,0,5],[1,1,0,0,-5]];perimeter=orthogonalPerimeter;outlineConnect=0;targetShapes=umlLifeline;portConstraint=eastwest;newEdgeStyle={&quot;curved&quot;:0,&quot;rounded&quot;:0};fillColor=light-dark(#23458b, #6db2ff);fontColor=#ffffff;strokeColor=#001DBC;" vertex="1" parent="1">
          <mxGeometry x="1195" y="310" width="10" height="100" as="geometry" />
        </mxCell>
        <object placeholders="1" c4Name="API Gateway Внешнего Cервиса" c4Type="Container" c4Technology="Envoy" c4Description="API шлюз и балансировщик" label="&lt;font style=&quot;font-size: 16px&quot;&gt;&lt;b&gt;%c4Name%&lt;/b&gt;&lt;/font&gt;&lt;div&gt;[%c4Type%: %c4Technology%]&lt;/div&gt;&lt;br&gt;&lt;div&gt;&lt;font style=&quot;font-size: 11px&quot;&gt;%c4Description%&lt;/font&gt;&lt;/div&gt;" id="6IIrEB2aeXXgAxtUAavF-19">
          <mxCell style="rounded=1;whiteSpace=wrap;html=1;labelBackgroundColor=none;fillColor=#63BEF2;fontColor=#ffffff;align=center;arcSize=6;strokeColor=#2086C9;metaEdit=1;resizable=0;points=[[0.25,0,0],[0.5,0,0],[0.75,0,0],[1,0.25,0],[1,0.5,0],[1,0.75,0],[0.75,1,0],[0.5,1,0],[0.25,1,0],[0,0.75,0],[0,0.5,0],[0,0.25,0]];" vertex="1" parent="1">
            <mxGeometry x="540" y="560" width="240" height="120" as="geometry" />
          </mxCell>
        </object>
        <mxCell id="6IIrEB2aeXXgAxtUAavF-20" value="Запрос прошел&lt;div&gt;проверку?&lt;/div&gt;" style="rhombus;whiteSpace=wrap;html=1;fontColor=#000000;fillColor=#ffffc0;strokeColor=#ff0000;" vertex="1" parent="1">
          <mxGeometry x="570" y="244" width="170" height="110" as="geometry" />
        </mxCell>
        <mxCell id="6IIrEB2aeXXgAxtUAavF-21" value="Нет" style="edgeStyle=orthogonalEdgeStyle;html=1;align=left;verticalAlign=bottom;endArrow=open;endSize=8;strokeColor=#ff0000;rounded=0;exitX=1;exitY=0.5;exitDx=0;exitDy=0;" edge="1" source="6IIrEB2aeXXgAxtUAavF-20" parent="1">
          <mxGeometry x="-1" relative="1" as="geometry">
            <mxPoint x="870" y="300" as="targetPoint" />
            <mxPoint x="740" y="300" as="sourcePoint" />
            <Array as="points">
              <mxPoint x="805" y="300" />
              <mxPoint x="870" y="301" />
            </Array>
          </mxGeometry>
        </mxCell>
        <mxCell id="6IIrEB2aeXXgAxtUAavF-22" value="Да" style="edgeStyle=orthogonalEdgeStyle;html=1;align=left;verticalAlign=top;endArrow=open;endSize=8;strokeColor=#ff0000;rounded=0;entryX=0.475;entryY=0;entryDx=0;entryDy=0;entryPerimeter=0;" edge="1" source="6IIrEB2aeXXgAxtUAavF-20" parent="1" target="6IIrEB2aeXXgAxtUAavF-19">
          <mxGeometry x="-1" relative="1" as="geometry">
            <mxPoint x="670" y="380" as="targetPoint" />
            <mxPoint as="offset" />
          </mxGeometry>
        </mxCell>
        <mxCell id="6IIrEB2aeXXgAxtUAavF-23" value="" style="endArrow=classic;html=1;rounded=0;entryX=0;entryY=0.5;entryDx=0;entryDy=0;" edge="1" parent="1" source="6IIrEB2aeXXgAxtUAavF-14" target="6IIrEB2aeXXgAxtUAavF-20">
          <mxGeometry relative="1" as="geometry">
            <mxPoint x="485" y="290" as="sourcePoint" />
            <mxPoint x="795" y="290" as="targetPoint" />
          </mxGeometry>
        </mxCell>
        <mxCell id="6IIrEB2aeXXgAxtUAavF-25" value="" style="endArrow=classic;html=1;rounded=0;" edge="1" parent="1">
          <mxGeometry relative="1" as="geometry">
            <mxPoint x="885" y="310" as="sourcePoint" />
            <mxPoint x="1195" y="310" as="targetPoint" />
          </mxGeometry>
        </mxCell>
        <mxCell id="6IIrEB2aeXXgAxtUAavF-26" value="Отправляет оповещение о&lt;div&gt;критичном событии&lt;/div&gt;" style="edgeLabel;resizable=0;html=1;;align=center;verticalAlign=middle;" connectable="0" vertex="1" parent="6IIrEB2aeXXgAxtUAavF-25">
          <mxGeometry relative="1" as="geometry" />
        </mxCell>
        <mxCell id="6IIrEB2aeXXgAxtUAavF-27" value="" style="endArrow=classic;html=1;rounded=0;" edge="1" parent="1" target="6IIrEB2aeXXgAxtUAavF-29">
          <mxGeometry relative="1" as="geometry">
            <mxPoint x="1205" y="320" as="sourcePoint" />
            <mxPoint x="1490" y="320" as="targetPoint" />
          </mxGeometry>
        </mxCell>
        <mxCell id="6IIrEB2aeXXgAxtUAavF-28" value="Отправляет оповещение о&lt;div&gt;критичном событии&lt;/div&gt;" style="edgeLabel;resizable=0;html=1;;align=center;verticalAlign=middle;" connectable="0" vertex="1" parent="6IIrEB2aeXXgAxtUAavF-27">
          <mxGeometry relative="1" as="geometry" />
        </mxCell>
        <mxCell id="6IIrEB2aeXXgAxtUAavF-30" value="" style="endArrow=none;dashed=1;html=1;rounded=0;entryX=0.523;entryY=1.014;entryDx=0;entryDy=0;entryPerimeter=0;" edge="1" parent="1" target="6IIrEB2aeXXgAxtUAavF-29">
          <mxGeometry width="50" height="50" relative="1" as="geometry">
            <mxPoint x="1500" y="550" as="sourcePoint" />
            <mxPoint x="1499.5" y="160" as="targetPoint" />
          </mxGeometry>
        </mxCell>
        <mxCell id="6IIrEB2aeXXgAxtUAavF-29" value="" style="html=1;points=[[0,0,0,0,5],[0,1,0,0,-5],[1,0,0,0,5],[1,1,0,0,-5]];perimeter=orthogonalPerimeter;outlineConnect=0;targetShapes=umlLifeline;portConstraint=eastwest;newEdgeStyle={&quot;curved&quot;:0,&quot;rounded&quot;:0};fillColor=light-dark(#23458b, #6db2ff);fontColor=#ffffff;strokeColor=#001DBC;" vertex="1" parent="1">
          <mxGeometry x="1495" y="320" width="10" height="80" as="geometry" />
        </mxCell>
      </root>
    </mxGraphModel>
  </diagram>
</mxfile>
